<?xml version="1.0" encoding="UTF-8" standalone="no"?>
<svg
   xmlns:dc="http://purl.org/dc/elements/1.1/"
   xmlns:cc="http://creativecommons.org/ns#"
   xmlns:rdf="http://www.w3.org/1999/02/22-rdf-syntax-ns#"
   xmlns:svg="http://www.w3.org/2000/svg"
   xmlns="http://www.w3.org/2000/svg"
   xmlns:sodipodi="http://sodipodi.sourceforge.net/DTD/sodipodi-0.dtd"
   xmlns:inkscape="http://www.inkscape.org/namespaces/inkscape"
   role="img"
   viewBox="0 0 24 24"
   version="1.1"
   id="svg3729"
   sodipodi:docname="javascript.svg"
   inkscape:version="0.92.3 (2405546, 2018-03-11)">
  <metadata
     id="metadata3735">
    <rdf:RDF>
      <cc:Work
         rdf:about="">
        <dc:format>image/svg+xml</dc:format>
        <dc:type
           rdf:resource="http://purl.org/dc/dcmitype/StillImage" />
      </cc:Work>
    </rdf:RDF>
  </metadata>
  <defs
     id="defs3733" />
  <sodipodi:namedview
     pagecolor="#ffffff"
     bordercolor="#666666"
     borderopacity="1"
     objecttolerance="10"
     gridtolerance="10"
     guidetolerance="10"
     inkscape:pageopacity="0"
     inkscape:pageshadow="2"
     inkscape:window-width="1203"
     inkscape:window-height="933"
     id="namedview3731"
     showgrid="false"
     inkscape:zoom="35.833333"
     inkscape:cx="8.3581395"
     inkscape:cy="12"
     inkscape:window-x="613"
     inkscape:window-y="79"
     inkscape:window-maximized="0"
     inkscape:current-layer="layer1" />
  <title
     id="title3725">JavaScript icon</title>
  <path
     d="M0 0h24v24H0V0zm22.034 18.276c-.175-1.095-.888-2.015-3.003-2.873-.736-.345-1.554-.585-1.797-1.14-.091-.33-.105-.51-.046-.705.15-.646.915-.84 1.515-.66.39.12.75.42.976.9 1.034-.676 1.034-.676 1.755-1.125-.27-.42-.404-.601-.586-.78-.63-.705-1.469-1.065-2.834-1.034l-.705.089c-.676.165-1.32.525-1.71 1.005-1.14 1.291-.811 3.541.569 4.471 1.365 1.02 3.361 1.244 3.616 2.205.24 1.17-.87 1.545-1.966 1.41-.811-.18-1.26-.586-1.755-1.336l-1.83 1.051c.21.48.45.689.81 1.109 1.74 1.756 6.09 1.666 6.871-1.004.029-.09.24-.705.074-1.65l.046.067zm-8.983-7.245h-2.248c0 1.938-.009 3.864-.009 5.805 0 1.232.063 2.363-.138 2.711-.33.689-1.18.601-1.566.48-.396-.196-.597-.466-.83-.855-.063-.105-.11-.196-.127-.196l-1.825 1.125c.305.63.75 1.172 1.324 1.517.855.51 2.004.675 3.207.405.783-.226 1.458-.691 1.811-1.411.51-.93.402-2.07.397-3.346.012-2.054 0-4.109 0-6.179l.004-.056z"
     id="path3727" />
  <path
     style="stroke-width:0.02790698;fill:#f7df1e;fill-opacity:0"
     d="M 0.01674419,11.991628 V 0.0055814 H 12.002791 23.988837 V 11.991628 23.977674 H 12.002791 0.01674419 Z M 10.224821,22.134051 c 0.413921,-0.04532 0.662912,-0.103152 0.968667,-0.225 1.035374,-0.41261 1.622849,-1.193536 1.817299,-2.415721 0.04129,-0.259556 0.04906,-0.564847 0.05556,-2.185423 0.0042,-1.036047 2.51e-4,-2.872674 -0.0087,-4.081395 l -0.01626,-2.197675 h -1.126275 -1.126275 l -2.23e-4,3.872093 c -2.23e-4,3.877178 -0.0077,4.21727 -0.0995,4.513954 -0.12396,0.400739 -0.47565,0.64439 -0.9746918,0.675266 C 9.1180911,20.12704 8.7466897,19.900576 8.3211253,19.240564 L 8.1367535,18.954617 7.9209377,19.088995 c -0.1186987,0.07391 -0.5297693,0.327331 -0.9134903,0.563163 -0.3837209,0.235832 -0.7022559,0.432109 -0.7078557,0.43617 -0.018922,0.01372 0.2237138,0.441556 0.3540182,0.62423 0.1769991,0.248136 0.5055954,0.586924 0.7276465,0.750214 0.7359248,0.541181 1.7802003,0.787702 2.8435696,0.671279 z m 8.97797,-0.149104 c 0.85427,-0.154104 1.660571,-0.552053 2.105987,-1.039409 0.355275,-0.388728 0.582995,-0.849017 0.702039,-1.419026 0.0387,-0.18532 0.04876,-0.803594 0.01974,-1.213954 -0.04209,-0.595212 -0.327211,-1.144977 -0.857422,-1.653262 -0.472968,-0.45341 -0.993094,-0.767092 -2.026156,-1.221951 -1.098068,-0.483482 -1.193617,-0.529384 -1.431818,-0.68785 -0.24935,-0.165882 -0.430687,-0.366843 -0.481481,-0.533587 -0.0598,-0.196321 -0.06546,-0.544344 -0.01163,-0.715485 0.08255,-0.262444 0.312941,-0.48254 0.610173,-0.582901 0.640837,-0.216382 1.380106,0.0903 1.748914,0.725528 l 0.09927,0.170985 0.632056,-0.408878 c 0.347631,-0.224883 0.745985,-0.480778 0.885231,-0.568657 L 21.45087,12.676721 21.37589,12.55743 c -0.47975,-0.763309 -1.074645,-1.270783 -1.754917,-1.497027 -0.351188,-0.116798 -0.615118,-0.16578 -1.078724,-0.200196 -0.354835,-0.02634 -0.452672,-0.02316 -0.848911,0.02762 -0.952777,0.122109 -1.661229,0.497326 -2.187317,1.158469 -0.680011,0.854582 -0.800814,2.175794 -0.296318,3.240796 0.420491,0.887666 1.059877,1.37141 2.782929,2.105497 0.957314,0.407854 1.436428,0.679711 1.604141,0.910216 0.159688,0.219478 0.190346,0.317313 0.191224,0.610238 7.78e-4,0.260011 -0.0055,0.292486 -0.09013,0.464439 -0.11116,0.225917 -0.257554,0.362733 -0.519388,0.485402 -0.267188,0.125178 -0.559012,0.179903 -0.959348,0.179903 -0.783042,0 -1.384969,-0.326471 -1.923368,-1.04319 -0.116673,-0.155315 -0.22223,-0.286322 -0.234571,-0.291126 -0.0197,-0.0077 -1.760234,0.975599 -1.821789,1.029167 -0.03855,0.03355 0.164275,0.388591 0.366725,0.641961 0.579835,0.725672 1.133536,1.120263 1.956318,1.394157 0.334347,0.1113 0.75108,0.205762 1.100582,0.249473 0.30459,0.03809 1.24613,0.01468 1.539761,-0.03829 z"
     id="path3737"
     inkscape:connector-curvature="0" />
  <path
     style="fill:#f7df1e;fill-opacity:1;stroke-width:0.02790698;stroke:#000000;stroke-opacity:1"
     d="M 0.01674419,11.991628 V 0.0055814 H 12.002791 23.988837 V 11.991628 23.977674 H 12.002791 0.01674419 Z M 10.224821,22.134051 c 0.413921,-0.04532 0.662912,-0.103152 0.968667,-0.225 1.035374,-0.41261 1.622849,-1.193536 1.817299,-2.415721 0.04129,-0.259556 0.04906,-0.564847 0.05556,-2.185423 0.0042,-1.036047 2.51e-4,-2.872674 -0.0087,-4.081395 l -0.01626,-2.197675 h -1.126275 -1.126275 l -2.23e-4,3.872093 c -2.23e-4,3.877178 -0.0077,4.21727 -0.0995,4.513954 -0.12396,0.400739 -0.47565,0.64439 -0.9746918,0.675266 C 9.1180911,20.12704 8.7466897,19.900576 8.3211253,19.240564 L 8.1367535,18.954617 7.9209377,19.088995 c -0.1186987,0.07391 -0.5297693,0.327331 -0.9134903,0.563163 -0.3837209,0.235832 -0.7022559,0.432109 -0.7078557,0.43617 -0.018922,0.01372 0.2237138,0.441556 0.3540182,0.62423 0.1769991,0.248136 0.5055954,0.586924 0.7276465,0.750214 0.7359248,0.541181 1.7802003,0.787702 2.8435696,0.671279 z m 8.97797,-0.149104 c 0.85427,-0.154104 1.660571,-0.552053 2.105987,-1.039409 0.355275,-0.388728 0.582995,-0.849017 0.702039,-1.419026 0.0387,-0.18532 0.04876,-0.803594 0.01974,-1.213954 -0.04209,-0.595212 -0.327211,-1.144977 -0.857422,-1.653262 -0.472968,-0.45341 -0.993094,-0.767092 -2.026156,-1.221951 -1.098068,-0.483482 -1.193617,-0.529384 -1.431818,-0.68785 -0.24935,-0.165882 -0.430687,-0.366843 -0.481481,-0.533587 -0.0598,-0.196321 -0.06546,-0.544344 -0.01163,-0.715485 0.08255,-0.262444 0.312941,-0.48254 0.610173,-0.582901 0.640837,-0.216382 1.380106,0.0903 1.748914,0.725528 l 0.09927,0.170985 0.632056,-0.408878 c 0.347631,-0.224883 0.745985,-0.480778 0.885231,-0.568657 L 21.45087,12.676721 21.37589,12.55743 c -0.47975,-0.763309 -1.074645,-1.270783 -1.754917,-1.497027 -0.351188,-0.116798 -0.615118,-0.16578 -1.078724,-0.200196 -0.354835,-0.02634 -0.452672,-0.02316 -0.848911,0.02762 -0.952777,0.122109 -1.661229,0.497326 -2.187317,1.158469 -0.680011,0.854582 -0.800814,2.175794 -0.296318,3.240796 0.420491,0.887666 1.059877,1.37141 2.782929,2.105497 0.957314,0.407854 1.436428,0.679711 1.604141,0.910216 0.159688,0.219478 0.190346,0.317313 0.191224,0.610238 7.78e-4,0.260011 -0.0055,0.292486 -0.09013,0.464439 -0.11116,0.225917 -0.257554,0.362733 -0.519388,0.485402 -0.267188,0.125178 -0.559012,0.179903 -0.959348,0.179903 -0.783042,0 -1.384969,-0.326471 -1.923368,-1.04319 -0.116673,-0.155315 -0.22223,-0.286322 -0.234571,-0.291126 -0.0197,-0.0077 -1.760234,0.975599 -1.821789,1.029167 -0.03855,0.03355 0.164275,0.388591 0.366725,0.641961 0.579835,0.725672 1.133536,1.120263 1.956318,1.394157 0.334347,0.1113 0.75108,0.205762 1.100582,0.249473 0.30459,0.03809 1.24613,0.01468 1.539761,-0.03829 z"
     id="path4544"
     inkscape:connector-curvature="0" />
  <g
     inkscape:groupmode="layer"
     id="layer1"
     inkscape:label="Layer 1"
     style="display:inline">
    <path
       style="fill:#000000;fill-opacity:1;stroke:#000000;stroke-width:0.02790698;stroke-opacity:1"
       d="M 9.2902326,22.117241 C 8.6313041,22.052205 7.9556396,21.819481 7.471784,21.490901 7.1132271,21.24741 6.6721805,20.744211 6.4471517,20.321877 l -0.1162992,-0.21827 0.8952503,-0.550662 c 0.4981601,-0.306414 0.9051316,-0.539615 0.9175279,-0.525757 0.012253,0.0137 0.104936,0.151552 0.2059632,0.306342 0.3201905,0.490584 0.6153077,0.708119 1.0457874,0.770862 0.7322307,0.106724 1.2599237,-0.23837 1.3771747,-0.900627 0.02241,-0.126553 0.03532,-1.355878 0.04374,-4.1633 l 0.01194,-3.983721 h 1.08316 1.083161 l 0.0173,0.104651 c 0.03004,0.181768 0.02031,7.809102 -0.01038,8.132728 -0.03228,0.340345 -0.12177,0.717875 -0.246996,1.041934 -0.443457,1.147576 -1.601526,1.819679 -3.0933802,1.795291 -0.1502559,-0.0025 -0.3171463,-0.0088 -0.3708672,-0.01411 z"
       id="path4557"
       inkscape:connector-curvature="0" />
    <path
       style="fill:#000000;fill-opacity:1;stroke:#000000;stroke-width:0.02790698;stroke-opacity:1"
       d="m 17.662326,21.992656 c -0.317622,-0.03229 -0.981455,-0.199084 -1.325827,-0.333133 -0.304836,-0.118658 -0.645639,-0.305616 -0.907841,-0.498025 -0.474173,-0.347956 -1.25414,-1.323573 -1.135212,-1.419973 0.0187,-0.01516 0.42211,-0.248287 0.896472,-0.518068 l 0.862475,-0.490511 0.142176,0.189377 c 0.474477,0.632003 0.895595,0.942658 1.480704,1.092303 0.44265,0.113211 1.117851,0.05756 1.51226,-0.12465 0.458034,-0.2116 0.692659,-0.616534 0.636527,-1.09857 -0.06386,-0.54837 -0.388749,-0.808549 -1.729176,-1.384746 -1.542009,-0.66285 -2.253102,-1.134174 -2.650759,-1.756967 -0.59692,-0.934871 -0.680358,-2.139515 -0.214712,-3.099926 0.366166,-0.75523 1.078511,-1.313701 1.959947,-1.536578 0.453292,-0.114618 0.944358,-0.158522 1.373923,-0.122838 1.032521,0.08577 1.661468,0.365864 2.267029,1.009578 0.227432,0.241762 0.584368,0.7321 0.560747,0.77032 -0.008,0.01291 -0.09358,0.07198 -0.190223,0.131278 -0.09665,0.0593 -0.474983,0.301133 -0.840749,0.537415 -0.365767,0.236282 -0.66809,0.425379 -0.67183,0.420214 -0.0037,-0.0052 -0.06585,-0.09947 -0.138013,-0.20957 -0.343604,-0.524205 -0.90597,-0.795635 -1.476241,-0.712517 -0.516197,0.07524 -0.822016,0.343435 -0.915451,0.802837 -0.04954,0.243558 0.01899,0.584045 0.158241,0.786227 0.194591,0.282538 0.471098,0.44601 1.57344,0.930222 0.360697,0.158439 0.81279,0.368209 1.004651,0.466156 0.710297,0.362615 1.281052,0.810059 1.626057,1.274748 0.407623,0.549029 0.515304,0.980909 0.487399,1.954834 -0.01504,0.524898 -0.06767,0.766677 -0.255269,1.172715 -0.377195,0.816391 -1.131719,1.375392 -2.243331,1.662009 -0.460645,0.118772 -1.266193,0.164923 -1.847414,0.105839 z"
       id="path4559"
       inkscape:connector-curvature="0" />
  </g>
</svg>
